# xmcd
#
# Track frame offsets:
#	150
#	13188
#	26790
#	40088
#	56415
#	71535
#	83440
#	100283
#	118220
#	132428
#	143210
#	154685
#	171565
#
# Disc length: 2527 seconds
#
# Revision: 5
# Processed by: cddbd v1.5.2PL0 Copyright (c) Steve Scherf et al.
# Submitted via: EasyCDDAExtractor 10.0.5.1
#
DISCID=b209dd0d
DTITLE=Van Morrison and Linda Gail Lewis - You Win Again
DYEAR=2000
DGENRE=Country
TTITLE0=Let's Talk About Us
TTITLE1=You Win Again
TTITLE2=Jambalaya
TTITLE3=Crazy Arms
TTITLE4=Old Black Joe
TTITLE5=Think Twice Before You Go
TTITLE6=No Way Pedro
TTITLE7=A Shot of Rhythm and Blues
TTITLE8=Real Gone Lover
TTITLE9=Why Don't You Love Me
TTITLE10=Cadillac
TTITLE11=Baby (You've Got What It Takes)
TTITLE12=Boogie Chillen
EXTD=CDDBSort:van_morrison_and_linda_gail_lewis,you_win_again - UPC: 7243850258
EXTD=22 - Catalogue #: VPBCD 54 - Label: Exile,Pointblank, Virgin - ASIN: B00004Y
EXTD=9S0 - Release Date: 2000 09 25 - Discogs: r1624827 - MUSICBRAINZ_ALBUMID:d9d
EXTD=e29b5-24cb-4343-8ce4-a68c2c378423;
EXTT0=
EXTT1=
EXTT2=
EXTT3=
EXTT4=
EXTT5=
EXTT6=
EXTT7=
EXTT8=
EXTT9=
EXTT10=
EXTT11=
EXTT12=
PLAYORDER=
